<svg width="51" height="48" viewBox="0 0 51 48" fill="none" xmlns="http://www.w3.org/2000/svg">
<path d="M50.3762 31.0463C50.3502 31.1132 50.2981 31.1936 50.2851 31.2605C49.7902 33.3356 48.2014 34.6476 46.1308 34.6476C43.5653 34.661 40.9869 34.6476 38.4214 34.6476C29.9566 34.6476 21.4919 34.6476 13.0271 34.6476C10.9565 34.6476 9.27661 33.3356 8.83384 31.3676C8.75571 30.9927 8.70361 30.6045 8.70361 30.2296C8.69059 21.7686 8.69059 13.2942 8.70361 4.83315C8.70361 2.61079 10.045 0.883773 12.0765 0.468754C12.4541 0.388428 12.8579 0.388428 13.2485 0.388428C24.1095 0.388428 34.9574 0.388428 45.8183 0.388428C48.2796 0.388428 49.686 1.49961 50.3241 3.94956C50.3371 3.97633 50.3632 4.00311 50.3762 4.02989C50.3762 13.0398 50.3762 22.0497 50.3762 31.0463ZM10.7872 28.7034C10.8393 28.7302 10.8914 28.757 10.9435 28.7838C11.0737 28.6231 11.1779 28.4625 11.3212 28.3152C13.8085 25.7581 16.2958 23.2011 18.7832 20.644C20.2678 19.1178 22.143 19.1178 23.6146 20.6307C24.422 21.4607 25.2294 22.2907 26.0368 23.1074C26.141 23.2145 26.2452 23.2948 26.3624 23.4019C26.5056 23.2279 26.6228 23.094 26.74 22.9601C29.2534 19.8676 31.7538 16.7616 34.2802 13.6824C34.6318 13.254 35.0876 12.839 35.5824 12.5846C36.9368 11.9019 38.3302 12.3035 39.4111 13.6021C42.224 16.9758 45.0499 20.3629 47.8628 23.7366C47.98 23.8705 48.1103 24.0044 48.3056 24.2453C48.3056 23.9374 48.3056 23.7902 48.3056 23.6429C48.3056 17.431 48.3056 11.2325 48.3056 5.02058C48.3056 3.3605 47.4982 2.53046 45.8704 2.53046C34.9834 2.53046 24.0964 2.54385 13.2095 2.51707C11.9072 2.51707 10.7742 3.34711 10.7742 5.03396C10.8133 12.7453 10.7872 20.4566 10.7872 28.1679C10.7872 28.3554 10.7872 28.5294 10.7872 28.7034ZM11.1389 31.555C11.6207 32.2646 12.2588 32.5323 13.0271 32.5323C14.5508 32.5323 16.0875 32.5323 17.6111 32.5323C27.0526 32.5323 36.494 32.5323 45.9355 32.5323C47.4591 32.5323 48.2926 31.6621 48.3056 30.1092C48.3056 29.4264 48.3317 28.7302 48.2926 28.0474C48.2796 27.7529 48.1624 27.4182 47.9931 27.204C44.6202 23.1208 41.2213 19.0643 37.8354 14.9944C37.1712 14.1912 36.5331 14.2179 35.8559 15.048C33.043 18.5154 30.2301 21.9962 27.4172 25.4636C26.7531 26.2803 26.1931 26.307 25.4638 25.5573C24.3699 24.4328 23.276 23.3082 22.1821 22.1836C21.4658 21.4473 20.9449 21.4473 20.2287 22.1836C17.3246 25.1691 14.4336 28.1412 11.5295 31.1266C11.3993 31.2605 11.2821 31.3944 11.1389 31.555Z" fill="white"/>
<path d="M36.1161 47.5129C33.9804 46.9238 31.8577 46.3214 29.7219 45.7323C21.0358 43.3493 12.3367 40.9529 3.6375 38.5699C1.18923 37.9005 -0.100015 35.6246 0.538097 33.1211C1.85339 28.0472 3.16868 22.9866 4.497 17.9261C4.69234 17.1763 5.14813 16.8149 5.72113 16.9086C6.35924 17.0157 6.72388 17.6315 6.52853 18.3545C5.89042 20.8178 5.25231 23.2945 4.60118 25.7579C3.924 28.3685 3.23379 30.9791 2.55661 33.6031C2.17896 35.0489 2.778 36.12 4.18445 36.5082C14.7459 39.4133 25.3073 42.3318 35.8687 45.237C37.4184 45.6654 38.3951 45.0897 38.8118 43.4966C39.3067 41.5955 39.8015 39.6945 40.3094 37.7934C40.5178 37.0169 41.0908 36.6688 41.7289 36.9098C42.2758 37.124 42.4972 37.6595 42.3149 38.3691C41.9242 39.8685 41.5335 41.3679 41.1298 42.8674C40.9996 43.3493 40.8824 43.8313 40.7522 44.3132C40.2834 45.9733 39.2285 47.0309 37.5746 47.4459C37.4965 47.4593 37.4314 47.5129 37.3663 47.5397C36.9626 47.5129 36.5328 47.5129 36.1161 47.5129Z" fill="white"/>
<path d="M19.096 6.8282C21.388 6.81481 23.2502 8.70248 23.2763 11.0721C23.3023 13.4283 21.401 15.3829 19.096 15.3829C16.817 15.3829 14.9417 13.4551 14.9287 11.0989C14.9417 8.75603 16.804 6.84158 19.096 6.8282ZM21.1926 11.1123C21.1926 9.92076 20.268 8.97023 19.122 8.97023C17.976 8.97023 17.0514 9.92076 17.0384 11.0989C17.0384 12.2904 17.963 13.2409 19.109 13.2543C20.255 13.2543 21.1926 12.2904 21.1926 11.1123Z" fill="white"/>
</svg>
