<svg width="50" height="56" viewBox="0 0 50 56" fill="none" xmlns="http://www.w3.org/2000/svg">
<path d="M44.4082 0.20166C45.0839 0.410448 45.7829 0.54964 46.4119 0.851223C48.6486 1.96476 49.8835 3.82065 49.9534 6.27971C50.0233 9.34194 50 12.381 49.9767 15.4432C49.9534 17.3687 48.5555 18.7142 46.575 18.7374C44.4315 18.7606 42.288 18.7374 40.1445 18.7374C39.9581 18.7374 39.7484 18.7374 39.562 18.7374C39.3989 19.387 39.562 19.8509 40.028 20.3149C41.3094 21.5444 42.5909 22.774 43.7092 24.1427C46.0391 26.9729 47.1342 30.3135 47.1575 33.9789C47.1575 38.0155 47.1808 42.0521 47.1342 46.0654C47.1109 49.1509 46.3653 52.0739 45.0839 54.8577C44.7577 55.6001 44.1752 55.8553 43.5694 55.6001C42.9637 55.3449 42.754 54.7185 43.0802 53.9994C44.0587 51.8651 44.6645 49.6148 44.8742 47.2718C44.9208 46.7846 44.9441 46.2974 44.9441 45.8102C44.9441 41.7737 44.9674 37.7371 44.9441 33.7237C44.8975 29.9424 43.4297 26.7409 40.7503 24.0963C40.3542 23.7019 39.9814 23.3075 39.4688 22.8204C39.4688 23.1683 39.4688 23.3539 39.4688 23.5395C39.4688 29.4088 39.4688 35.3012 39.4688 41.1705C39.4688 43.4208 38.0942 45.0679 35.9506 45.3695C34.2498 45.6015 32.4791 44.6735 31.85 43.0728C31.2209 41.5185 30.7549 39.8946 30.1958 38.3171C30.1026 38.0851 30.0327 37.8299 29.9162 37.6211C29.6599 37.1571 29.2405 36.9252 28.6813 36.9948C28.1454 37.0643 27.7727 37.4587 27.6795 37.9923C27.6562 38.1083 27.6329 38.2475 27.6329 38.3635C27.6329 41.2169 27.6329 44.0703 27.6562 46.9238C27.6562 48.2229 28.0057 49.4524 28.4949 50.6588C28.9609 51.7955 29.4502 52.9322 29.9162 54.069C30.1958 54.7649 30.0327 55.3217 29.4735 55.6001C28.9143 55.8785 28.2619 55.6929 28.0057 55.0897C27.0737 52.793 25.8388 50.6124 25.5592 48.1069C25.4428 47.1094 25.4661 46.0886 25.4428 45.0679C25.4195 43.8152 25.4428 42.5392 25.4428 41.1937C25.2098 41.1937 25.0234 41.1937 24.837 41.1937C23.2293 41.1937 21.5984 41.1937 19.9908 41.1937C19.3151 41.1937 18.8724 40.8921 18.7559 40.3586C18.5928 39.6162 19.1054 39.0362 19.9908 39.0362C21.5984 39.0362 23.1827 39.0362 24.7904 39.0362C24.9768 39.0362 25.1865 39.0362 25.4195 39.0362C25.4428 38.6419 25.4661 38.2939 25.4894 37.9459C25.6291 36.3452 26.7708 35.1157 28.3551 34.8605C29.9162 34.6285 31.4306 35.4636 32.0131 36.9716C32.5956 38.5723 33.1082 40.173 33.644 41.7969C33.8537 42.4232 34.2032 42.9336 34.8556 43.1656C35.9972 43.56 37.1389 42.7944 37.2554 41.5881C37.2787 41.3793 37.2554 41.1473 37.2554 40.9385C37.2554 29.6872 37.2554 18.459 37.2554 7.20766C37.2554 5.51416 37.5583 3.93665 38.6533 2.59112C38.6766 2.54473 38.6999 2.49833 38.7465 2.38234C38.5368 2.38234 38.3737 2.38234 38.1874 2.38234C27.7028 2.38234 17.1949 2.38234 6.71028 2.38234C3.91439 2.38234 2.19026 4.09904 2.19026 6.88288C2.19026 19.9901 2.19026 33.0974 2.19026 46.2046C2.19026 47.3878 2.53975 47.7357 3.7047 47.7357C8.15483 47.7357 12.605 47.7357 17.0551 47.7357C17.2182 47.7357 17.3813 47.7357 17.5444 47.7357C18.22 47.7821 18.6627 48.2229 18.6627 48.8261C18.6627 49.406 18.22 49.8468 17.5677 49.8932C17.4512 49.8932 17.3114 49.8932 17.1949 49.8932C12.6749 49.8932 8.15483 49.8932 3.6348 49.8932C1.35149 49.8932 0.0234449 48.5477 0.0234449 46.2742C0.0234449 33.1206 0.046744 19.9901 0.000145829 6.83648C-0.0231533 3.0319 2.74944 0.572839 5.42883 0.271256C5.47543 0.271256 5.52203 0.224859 5.56863 0.20166C18.5462 0.20166 31.4772 0.20166 44.4082 0.20166ZM39.4921 16.5799C41.9385 16.5799 44.315 16.6031 46.6915 16.5799C47.3439 16.5799 47.7633 16.1159 47.7633 15.4432C47.7866 12.4042 47.8332 9.36513 47.74 6.32611C47.6701 4.05264 45.7829 2.33594 43.5927 2.35914C41.3327 2.40553 39.5853 4.14543 39.5154 6.4653C39.4921 7.23086 39.5154 8.01961 39.5154 8.80837C39.4921 11.3834 39.4921 13.9353 39.4921 16.5799Z" fill="white"/>
<path d="M5.91783 10.5949C5.91783 9.8293 5.89453 9.08694 5.91783 8.32138C5.94113 6.97586 6.8265 6.09431 8.17784 6.07111C9.69228 6.04791 11.23 6.04791 12.7445 6.07111C14.0725 6.07111 14.9812 6.90626 15.0278 8.25179C15.0744 9.8293 15.0744 11.43 15.0278 13.0307C14.9812 14.3762 14.0725 15.1882 12.7212 15.1882C11.2067 15.1882 9.66898 15.2114 8.15454 15.1882C6.82649 15.165 5.94113 14.3066 5.89453 12.9843C5.89453 12.1724 5.91783 11.3836 5.91783 10.5949ZM8.10794 12.9611C9.73888 12.9611 11.2999 12.9611 12.861 12.9611C12.861 11.3604 12.861 9.8293 12.861 8.27498C11.2533 8.27498 9.69228 8.27498 8.10794 8.27498C8.10794 9.85249 8.10794 11.3836 8.10794 12.9611Z" fill="white"/>
<path d="M5.91846 23.6092C5.91846 22.8668 5.91846 22.1245 5.91846 21.3821C5.94176 19.967 6.82712 19.0854 8.24837 19.0854C9.76281 19.0854 11.2539 19.0854 12.7684 19.0854C14.1197 19.0854 15.0284 19.9206 15.0517 21.2429C15.0983 22.8204 15.0983 24.4211 15.0517 26.0219C15.0051 27.3674 14.0964 28.1793 12.7684 28.1793C11.2539 28.1793 9.76281 28.1793 8.24837 28.1793C6.82712 28.1793 5.94176 27.2978 5.91846 25.8827C5.91846 25.1171 5.91846 24.3747 5.91846 23.6092ZM12.8383 25.9987C12.8383 24.3979 12.8383 22.8204 12.8383 21.2661C11.2307 21.2661 9.69291 21.2661 8.13187 21.2661C8.13187 22.8668 8.13187 24.4211 8.13187 25.9987C9.71621 25.9987 11.2772 25.9987 12.8383 25.9987Z" fill="white"/>
<path d="M5.91846 36.6468C5.91846 35.9044 5.91846 35.1621 5.91846 34.4197C5.94176 32.9582 6.80382 32.0999 8.27166 32.0767C9.76281 32.0767 11.2539 32.0767 12.7451 32.0767C14.1197 32.0767 15.0284 32.9118 15.075 34.2805C15.1216 35.858 15.1216 37.4356 15.075 38.9899C15.0284 40.3586 14.1197 41.1705 12.7451 41.1937C11.2539 41.1937 9.76281 41.1937 8.27166 41.1937C6.82712 41.1937 5.94176 40.3122 5.91846 38.8507C5.91846 38.1315 5.91846 37.3892 5.91846 36.6468ZM12.8383 39.0131C12.8383 37.3892 12.8383 35.8348 12.8383 34.2805C11.2307 34.2805 9.69291 34.2805 8.13187 34.2805C8.13187 35.8812 8.13187 37.4356 8.13187 39.0131C9.73951 39.0131 11.2772 39.0131 12.8383 39.0131Z" fill="white"/>
<path d="M26.0952 28.1797C24.1614 28.1797 22.2043 28.1797 20.2704 28.1797C20.1073 28.1797 19.9443 28.1797 19.7812 28.1565C19.1754 28.0869 18.7793 27.646 18.7793 27.0659C18.7793 26.4859 19.1987 26.0682 19.8045 25.9986C19.9443 25.9754 20.084 25.9986 20.2471 25.9986C24.1381 25.9986 28.0523 25.9986 31.9433 25.9986C32.0831 25.9986 32.2462 25.9986 32.386 25.9986C32.9917 26.0682 33.4111 26.4859 33.4111 27.0659C33.4111 27.6692 32.9917 28.0869 32.3627 28.1565C32.1996 28.1797 32.0365 28.1565 31.8734 28.1565C29.9396 28.1797 28.029 28.1797 26.0952 28.1797Z" fill="white"/>
<path d="M28.5883 15.1653C27.4 15.1653 26.1885 15.1653 25.0002 15.1653C24.2779 15.1653 23.8353 14.794 23.7887 14.1907C23.7188 13.5411 24.1847 13.0306 24.907 13.0074C27.3767 12.9842 29.8464 12.9842 32.3161 13.0074C32.9918 13.0074 33.4345 13.4715 33.4345 14.0979C33.4345 14.7012 32.9918 15.1421 32.2928 15.1653C31.058 15.1885 29.8231 15.1653 28.5883 15.1653Z" fill="white"/>
<path d="M20.9228 14.0979C20.9228 14.6779 20.4102 15.1652 19.8278 15.1652C19.2453 15.1652 18.7793 14.6547 18.7793 14.0747C18.7793 13.4946 19.2919 13.0073 19.8511 13.0073C20.4568 13.0305 20.9461 13.5178 20.9228 14.0979Z" fill="white"/>
<path d="M22.3906 47.7358C22.9498 47.7358 23.4624 48.2463 23.4857 48.8032C23.4857 49.36 22.9731 49.8705 22.4139 49.8937C21.8547 49.8937 21.3421 49.3832 21.3188 48.8264C21.3188 48.2463 21.8314 47.7358 22.3906 47.7358Z" fill="white"/>
</svg>
