<svg width="51" height="51" viewBox="0 0 51 51" fill="none" xmlns="http://www.w3.org/2000/svg">
<path d="M25.7676 50.9512C25.5072 50.9512 25.2467 50.9512 24.9863 50.9512C24.8301 50.8601 24.6738 50.7429 24.5046 50.6647C22.9551 49.9876 21.4056 49.3104 19.8561 48.6462C13.7363 45.9896 7.61654 43.32 1.49674 40.6765C1.04102 40.4811 0.585286 40.3249 0.376953 39.83C0.376953 30.584 0.376953 21.338 0.376953 12.0921C0.598307 11.8707 0.79362 11.5581 1.05404 11.4409C2.83789 10.6205 4.63477 9.86522 6.41862 9.08387C12.5775 6.41425 18.7233 3.71859 24.8822 1.062C25.1816 0.931778 25.6374 0.957823 25.9499 1.10107C33.8405 4.51297 41.7181 7.95091 49.5957 11.3628C50.1165 11.5972 50.377 11.9358 50.377 12.5088C50.3639 21.4552 50.3639 30.4147 50.377 39.3612C50.377 39.9212 50.1426 40.2728 49.6348 40.4941C41.9264 43.8409 34.2311 47.1877 26.5228 50.5345C26.2624 50.6647 26.015 50.808 25.7676 50.9512ZM24.2962 30.7143C24.14 30.7663 24.0228 30.8054 23.9056 30.8445C23.2936 31.0528 22.7467 30.8445 22.5254 30.3106C22.291 29.7766 22.5254 29.2167 23.0983 28.9432C23.3717 28.813 23.6582 28.6827 23.9447 28.5786C24.2311 28.4744 24.3483 28.3181 24.3353 28.0056C24.3223 26.6382 24.3223 25.2708 24.3353 23.9035C24.3353 23.5909 24.2311 23.4477 23.9447 23.3305C16.9264 20.2832 9.9082 17.236 2.88997 14.1887C2.75977 14.1366 2.62956 14.0975 2.47331 14.0454C2.47331 22.0022 2.47331 29.9199 2.47331 37.9027C3.08529 37.6032 3.67122 37.4599 4.13997 38.0459C4.5306 38.5408 4.37435 39.0226 4.00977 39.4914C10.7676 42.4345 17.5124 45.3646 24.2832 48.3077C24.2962 42.3824 24.2962 36.5744 24.2962 30.7143ZM48.2676 37.8766C48.2676 29.8938 48.2676 21.9761 48.2676 14.0324C48.1634 14.0585 48.1113 14.0845 48.0462 14.0975C40.9499 17.1839 33.8405 20.2832 26.7311 23.3826C26.5879 23.4477 26.4447 23.6821 26.4316 23.8384C26.4056 25.2318 26.4316 26.6382 26.4056 28.0316C26.4056 28.3051 26.5098 28.4353 26.7572 28.5265C27.0697 28.6437 27.3952 28.7869 27.6947 28.9432C28.2415 29.2167 28.4499 29.7636 28.2285 30.2845C28.0072 30.8054 27.4733 31.0268 26.8874 30.8445C26.7572 30.8054 26.6139 30.7533 26.4447 30.6882C26.4447 36.5614 26.4447 42.3824 26.4447 48.2816C33.2285 45.3255 39.9603 42.3954 46.7311 39.4654C46.3405 38.9835 46.2233 38.5017 46.5879 38.0329C47.0566 37.4339 47.6426 37.5901 48.2676 37.8766ZM26.4316 3.57535C26.4316 4.10927 26.4447 4.56506 26.4316 5.02084C26.4186 5.58081 26.1322 5.98451 25.6895 6.10171C24.9993 6.29705 24.3743 5.81522 24.3483 5.03387C24.3353 4.57808 24.3483 4.10927 24.3483 3.57535C17.5254 6.53146 10.8197 9.4485 4.06185 12.3916C4.19206 12.4567 4.23112 12.4827 4.27018 12.5088C11.1973 15.517 18.1243 18.5382 25.0514 21.5334C25.2467 21.6245 25.5592 21.5985 25.7806 21.5073C31.4577 19.0461 37.1348 16.5848 42.8118 14.1106C44.0879 13.5636 45.3509 13.0036 46.7181 12.4046C39.9212 9.43547 33.2025 6.51843 26.4316 3.57535Z" fill="white"/>
<path d="M12.213 35.3894C11.9917 35.6628 11.8224 36.0405 11.5359 36.1837C10.4943 36.7046 9.41354 37.1474 8.33281 37.5902C7.79896 37.8115 7.25209 37.5511 7.03073 37.0562C6.79636 36.5353 6.97865 35.9493 7.52552 35.7019C8.58021 35.2201 9.64792 34.7382 10.7286 34.3085C11.4188 34.048 12.1219 34.582 12.213 35.3894Z" fill="white"/>
<path d="M19.843 31.8866C19.843 32.3423 19.6477 32.6809 19.231 32.8632C18.1894 33.3321 17.1607 33.7878 16.106 34.2176C15.5592 34.439 14.9732 34.1785 14.7649 33.6706C14.5435 33.1497 14.7519 32.5637 15.2987 32.3163C16.3274 31.8475 17.3691 31.3787 18.4237 30.962C19.1399 30.6885 19.83 31.1703 19.843 31.8866Z" fill="white"/>
<path d="M42.6557 37.6683C42.5775 37.6423 42.3822 37.5902 42.213 37.5251C41.2755 37.1214 40.338 36.7177 39.4005 36.301C38.7494 36.0145 38.489 35.4675 38.7234 34.8946C38.9708 34.3085 39.5567 34.1002 40.2338 34.3867C41.2104 34.8034 42.1999 35.2331 43.1765 35.6759C43.6843 35.9103 43.9187 36.3921 43.8015 36.861C43.6713 37.3558 43.2546 37.6683 42.6557 37.6683Z" fill="white"/>
<path d="M32.004 30.8835C32.0691 30.8966 32.2254 30.9096 32.3556 30.9617C33.3842 31.4044 34.4129 31.8342 35.4415 32.303C35.9363 32.5244 36.1447 32.9541 36.0535 33.462C35.9624 33.9308 35.6629 34.2043 35.2072 34.2824C35.0639 34.3085 34.9077 34.3085 34.7775 34.2564C33.6577 33.7876 32.5379 33.3057 31.4311 32.7979C30.9884 32.5895 30.8321 32.0946 30.9624 31.6258C31.0665 31.1961 31.4702 30.8966 32.004 30.8835Z" fill="white"/>
<path d="M24.3216 18.1346C24.3216 17.6527 24.3086 17.1579 24.3216 16.676C24.3477 15.9989 24.7513 15.5561 25.3372 15.53C25.9362 15.517 26.3919 15.9858 26.4049 16.676C26.418 17.6527 26.418 18.6294 26.4049 19.5931C26.3919 20.2833 25.9362 20.7521 25.3372 20.7391C24.7513 20.726 24.3477 20.2702 24.3086 19.5931C24.3086 19.567 24.3086 19.528 24.3086 19.5019C24.3216 19.0331 24.3216 18.5903 24.3216 18.1346Z" fill="white"/>
<path d="M26.4323 10.8289C26.4323 11.2847 26.4323 11.7405 26.4323 12.1963C26.4193 12.9776 26.0156 13.4464 25.3646 13.4464C24.7396 13.4334 24.3359 12.9646 24.3359 12.2223C24.3229 11.2977 24.3229 10.3731 24.3359 9.4485C24.349 8.70622 24.7526 8.25043 25.3906 8.26346C26.0026 8.26346 26.4063 8.71924 26.4193 9.43548C26.4323 9.87825 26.4323 10.3601 26.4323 10.8289Z" fill="white"/>
</svg>
