<svg width="44" height="41" viewBox="0 0 44 41" fill="none" xmlns="http://www.w3.org/2000/svg">
<path d="M43.0384 16.4219C43.0384 15.9776 42.8682 15.6658 42.4938 15.393C40.7748 14.1614 39.0643 12.9142 37.3283 11.6982C36.9028 11.402 36.7241 11.0824 36.7241 10.5835C36.7411 7.33298 36.7326 4.09028 36.7326 0.839783C36.7326 0.613729 36.7837 0.36429 36.605 0.161621C29.4312 0.161621 22.2489 0.161621 15.0751 0.161621C14.8878 0.255161 14.7176 0.36429 14.5645 0.504599C12.2753 2.61703 9.99468 4.71388 7.70553 6.80293C7.40768 7.06796 7.28004 7.35637 7.28855 7.73832C7.30557 8.75167 7.28855 9.76501 7.29706 10.7784C7.30557 11.1057 7.18643 11.3474 6.89709 11.5423C6.50564 11.7995 6.13121 12.0801 5.75677 12.3529C4.32712 13.3741 2.90598 14.4108 1.46781 15.4242C1.11891 15.6736 0.957223 15.9542 0.991262 16.3518C1.01679 16.6636 0.999772 16.9754 0.999772 17.2871C0.999772 24.6612 0.999772 32.0352 0.999772 39.417C0.999772 39.6431 0.940203 39.8847 1.11891 40.0952C15.0495 40.0952 28.9716 40.0952 42.9022 40.0952C43.0639 39.9159 43.0299 39.7055 43.0299 39.495C43.0299 31.8014 43.0299 24.1155 43.0384 16.4219ZM36.605 14.3017C37.5581 14.9876 38.4516 15.6346 39.3536 16.2738C39.4728 16.3595 39.4898 16.4141 39.3621 16.5077C38.4601 17.1468 37.5666 17.8016 36.6135 18.4876C36.605 17.0689 36.605 15.7204 36.605 14.3017ZM15.2878 3.4355C15.2878 4.46444 15.2963 5.52455 15.2878 6.58467C15.2878 6.91985 15.4495 7.35637 15.2112 7.55124C14.9985 7.71494 14.5389 7.60581 14.1815 7.60581C13.0412 7.60581 11.8924 7.60581 10.7521 7.60581C10.735 7.57463 10.7265 7.54345 10.7095 7.52006C12.2328 6.15595 13.756 4.79962 15.2878 3.4355ZM10.3436 9.9365C12.7008 9.9443 15.0495 9.9365 17.4067 9.95209C17.7557 9.95209 17.8493 9.87414 17.8493 9.54675C17.8322 7.34078 17.8493 5.12701 17.8322 2.92104C17.8322 2.61703 17.8748 2.5079 18.2492 2.5079C23.3721 2.52349 28.4866 2.52349 33.6095 2.5079C33.9584 2.5079 34.018 2.60144 34.018 2.89765C34.0095 5.7584 34.0095 8.61136 34.0095 11.4721C34.0095 14.3017 34.0009 17.1312 34.018 19.9686C34.018 20.2492 33.9244 20.4129 33.6861 20.5844C29.8652 23.3204 26.0527 26.0565 22.2488 28.8003C22.0446 28.9484 21.9255 28.9562 21.7127 28.8003C17.8748 26.0331 14.0198 23.2737 10.1734 20.5143C10.0117 20.3973 9.95213 20.2804 9.95213 20.0933C9.96064 16.8195 9.96064 13.5456 9.95213 10.2717C9.95213 9.96768 10.0713 9.9365 10.3436 9.9365ZM4.64198 16.2504C5.54403 15.6112 6.44607 14.9643 7.39066 14.2861C7.39066 15.697 7.39066 17.0611 7.39066 18.4798C6.45458 17.8094 5.56105 17.1702 4.66751 16.531C4.53136 16.4453 4.45477 16.3829 4.64198 16.2504ZM40.3152 37.3592C40.3152 37.6944 40.2131 37.7567 39.8727 37.7567C27.9504 37.7489 16.0196 37.7489 4.09735 37.7567C3.74845 37.7567 3.66335 37.6866 3.66335 37.3592C3.67186 31.3025 3.67186 25.2536 3.67186 19.1969C3.67186 19.0878 3.67186 18.9709 3.67186 18.7916C9.67981 23.11 15.6112 27.366 21.534 31.6377C21.8829 31.8949 22.0872 31.8949 22.4446 31.6377C28.2568 27.444 34.0775 23.2659 39.8983 19.0878C40.0089 19.0098 40.1195 18.9319 40.2301 18.8539C40.3578 18.9787 40.2982 19.119 40.2982 19.2359C40.3067 25.277 40.3067 31.3181 40.3152 37.3592Z" fill="#5D3FD3"/>
<path d="M21.96 15.3546C20.1899 15.3546 18.4113 15.3468 16.6413 15.3624C16.3434 15.3624 16.2498 15.2922 16.2669 15.0193C16.2924 14.4736 16.2924 13.9278 16.2669 13.3821C16.2498 13.1014 16.3264 13.0078 16.6583 13.0078C18.0029 13.0234 19.3559 13.0156 20.7005 13.0156C22.896 13.0156 25.0916 13.0234 27.2956 13.0078C27.6105 13.0078 27.7041 13.078 27.6871 13.3665C27.6616 13.9122 27.653 14.458 27.6871 15.0038C27.7041 15.3078 27.585 15.3624 27.2786 15.3624C25.5086 15.3546 23.7385 15.3546 21.96 15.3546Z" fill="#5D3FD3"/>
<path d="M21.9855 20.0314C20.2155 20.0314 18.4369 20.0236 16.6669 20.0392C16.352 20.0392 16.2499 19.9768 16.2669 19.6727C16.2925 19.1192 16.2839 18.5578 16.2669 17.9964C16.2584 17.7625 16.318 17.6846 16.5903 17.6846C20.19 17.6924 23.7896 17.6924 27.3978 17.6846C27.6191 17.6846 27.6871 17.7313 27.6871 17.9419C27.6701 18.5266 27.6616 19.1114 27.6871 19.6961C27.6956 19.9768 27.5935 20.0392 27.3042 20.0314C25.5341 20.0314 23.7556 20.0314 21.9855 20.0314Z" fill="#5D3FD3"/>
</svg>
