<svg width="34" height="48" viewBox="0 0 34 48" fill="none" xmlns="http://www.w3.org/2000/svg">
<path d="M17.1157 0.793945C16.9177 0.928483 16.7196 0.940713 16.5215 0.793945C16.7196 0.793945 16.9177 0.793945 17.1157 0.793945Z" fill="#5D3FD3"/>
<path d="M18.1997 47.7811C18.3051 47.6466 18.4633 47.6955 18.6082 47.7077C18.6346 47.7322 18.6478 47.7444 18.6346 47.7689C18.6214 47.7811 18.6082 47.7933 18.6082 47.7933C18.4633 47.7811 18.3315 47.7811 18.1997 47.7811Z" fill="#383838"/>
<path d="M16.126 47.6956C16.2314 47.6834 16.35 47.6589 16.429 47.7812C16.3236 47.7812 16.2314 47.7812 16.126 47.7812C16.0996 47.769 16.0864 47.7445 16.0864 47.7323C16.0996 47.7078 16.1128 47.6956 16.126 47.6956Z" fill="#343434"/>
<path d="M18.5962 47.7806C18.5962 47.7564 18.5962 47.7322 18.6094 47.708C18.7016 47.708 18.807 47.708 18.8993 47.708C18.9256 47.7322 18.9388 47.7443 18.9256 47.7564C18.9125 47.7685 18.8993 47.7806 18.8993 47.7806C18.7939 47.7806 18.7016 47.7806 18.5962 47.7806Z" fill="#616161"/>
<path d="M18.5033 0.793945C18.4374 0.914852 18.3716 0.89067 18.3057 0.793945C18.3716 0.793945 18.4374 0.793945 18.5033 0.793945Z" fill="#5D3FD3"/>
<path d="M15.3345 47.7799C15.3608 47.6711 15.4531 47.6953 15.5321 47.7073C15.5717 47.7194 15.5849 47.7436 15.5717 47.7557C15.5585 47.7678 15.5453 47.7799 15.5453 47.7799C15.4663 47.7799 15.4004 47.7799 15.3345 47.7799Z" fill="#5D3FD3"/>
<path d="M15.5317 47.7806C15.5317 47.7564 15.5317 47.7322 15.5317 47.708C15.5976 47.708 15.6635 47.708 15.7294 47.708C15.7689 47.7201 15.7821 47.7443 15.7689 47.7564C15.7558 47.7685 15.7426 47.7806 15.7426 47.7806C15.6635 47.7806 15.5976 47.7806 15.5317 47.7806Z" fill="#5D3FD3"/>
<path d="M15.73 47.7806C15.73 47.7564 15.73 47.7322 15.73 47.708C15.7959 47.708 15.8618 47.708 15.9277 47.708C15.9672 47.7201 15.9804 47.7443 15.9672 47.7564C15.954 47.7806 15.9408 47.7806 15.9408 47.7806C15.8618 47.7806 15.7959 47.7806 15.73 47.7806Z" fill="#5D3FD3"/>
<path d="M15.9282 47.7806C15.9282 47.7564 15.9282 47.7322 15.9282 47.708C15.9941 47.708 16.06 47.708 16.1259 47.708C16.1259 47.7322 16.1259 47.7564 16.1259 47.7926C16.06 47.7806 15.9941 47.7806 15.9282 47.7806Z" fill="#4C4C4C"/>
<path d="M18.8989 47.7806C18.8989 47.7564 18.8989 47.7322 18.8989 47.708C18.9648 47.708 19.0307 47.708 19.0966 47.708C19.1229 47.7201 19.1361 47.7443 19.1229 47.7564C19.1098 47.7685 19.0966 47.7806 19.0966 47.7806C19.0307 47.7806 18.9648 47.7806 18.8989 47.7806Z" fill="#5D3FD3"/>
<path d="M19.0981 47.7799C19.0981 47.7557 19.0981 47.7315 19.0981 47.7073C19.1772 47.6953 19.2695 47.6711 19.2958 47.7799C19.2299 47.7799 19.164 47.7799 19.0981 47.7799Z" fill="#5D3FD3"/>
<path d="M31.9588 37.6869C31.1797 37.0262 30.2949 36.5489 29.3573 36.1329C27.7594 35.4232 26.069 34.9827 24.2995 34.6278C24.5636 34.2607 24.8145 33.9181 25.0654 33.5877C27.7726 29.9168 30.3081 26.1479 32.1305 22.0242C33.1605 19.6748 33.8604 17.2765 33.6095 14.6701C32.9624 8.0991 27.7858 2.59268 20.8131 1.16101C20.1528 1.02641 19.4794 0.916281 18.8191 0.806152C18.7134 0.806152 18.621 0.806152 18.5153 0.806152C18.4493 0.867335 18.3833 0.867335 18.3172 0.806152C17.9211 0.806152 17.5249 0.806152 17.1287 0.806152C16.9306 0.879571 16.7326 0.879571 16.5345 0.806152C16.2704 0.806152 16.0062 0.806152 15.7421 0.806152C15.6893 0.95299 15.5572 0.891808 15.4516 0.904044C10.407 1.55258 6.40565 3.80409 3.59283 7.75648C1.55914 10.6321 0.700767 13.8258 1.08373 17.2642C1.30823 19.3934 2.1534 21.3757 3.11742 23.3335C4.99264 27.1636 7.4225 30.6999 9.99762 34.1628C10.1033 34.3097 10.2617 34.432 10.2881 34.6401C8.72987 34.946 7.22441 35.3498 5.77178 35.9371C4.438 36.4755 3.17024 37.1363 2.19302 38.1519C0.59512 39.8038 0.581915 41.9575 2.14019 43.6339C2.73445 44.2824 3.46077 44.7841 4.26632 45.1879C6.94709 46.5584 9.89197 47.1213 12.8897 47.5128C13.5764 47.5985 14.2895 47.5495 14.9498 47.782C15.0818 47.782 15.2139 47.782 15.346 47.782C15.412 47.7209 15.4912 47.7453 15.5704 47.7331C15.6365 47.7331 15.6893 47.7331 15.7553 47.7331C15.8214 47.7331 15.8742 47.7331 15.9402 47.7331C16.0062 47.7331 16.0723 47.7331 16.1251 47.7331C16.2307 47.7453 16.3364 47.6964 16.4288 47.782C17.0231 47.782 17.6173 47.782 18.2116 47.782C18.3305 47.6964 18.4757 47.7576 18.6078 47.7331C18.7002 47.7331 18.7794 47.7331 18.8719 47.7331C18.9379 47.7331 19.0039 47.7331 19.07 47.7331C19.1492 47.7331 19.2416 47.7086 19.3077 47.782C19.3737 47.782 19.4397 47.782 19.5058 47.782C19.5586 47.6352 19.7039 47.6964 19.7963 47.6964C22.0149 47.5373 24.2202 47.2314 26.3728 46.6808C28.3404 46.1791 30.2288 45.5183 31.8135 44.2824C34.217 42.4102 34.283 39.657 31.9588 37.6869ZM6.66977 23.8108C5.5869 21.8652 4.59647 19.8828 4.16068 17.717C3.55321 14.6946 4.23991 11.8557 6.03589 9.31051C8.69025 5.56615 12.5331 3.73067 16.6401 3.53489C24.1806 3.54713 29.9251 8.41725 30.625 14.7313C30.8495 16.787 30.3213 18.6959 29.5421 20.5803C28.2612 23.6272 26.5048 26.4294 24.6296 29.1826C22.4771 32.3518 20.1264 35.3865 17.6305 38.3355C17.4853 38.5068 17.3928 38.7882 17.0891 38.4211C13.2066 33.7957 9.57504 29.0235 6.66977 23.8108ZM30.2817 41.8106C29.8063 42.3613 29.1724 42.7161 28.4989 43.0098C26.5312 43.8908 24.4447 44.3314 22.3054 44.6495C20.8395 44.8698 19.3605 44.9799 17.657 45.0288C14.3423 45.0288 10.8692 44.6373 7.51494 43.5605C6.63015 43.279 5.77178 42.9242 5.00584 42.398C4.82096 42.2756 4.63608 42.1288 4.47761 41.9819C3.73809 41.26 3.72489 40.6115 4.47761 39.9017C5.42843 39.0085 6.63015 38.519 7.87149 38.0907C9.19207 37.638 10.5523 37.3688 11.9389 37.1363C12.2294 37.0873 12.3482 37.222 12.4935 37.3933C13.6292 38.8127 14.7913 40.2199 16.0062 41.5904C16.7986 42.4836 17.789 42.4836 18.5814 41.5904C19.7963 40.2199 20.9452 38.8127 22.0941 37.3933C22.2262 37.2342 22.3186 37.0751 22.5959 37.1241C24.8145 37.4912 26.9802 37.9684 28.9347 39.0452C29.4365 39.3144 29.8987 39.6325 30.2685 40.0608C30.8099 40.6849 30.8231 41.1988 30.2817 41.8106Z" fill="#5D3FD3"/>
<path d="M17.3014 23.1007C13.102 23.1007 9.66846 19.9314 9.66846 16.028C9.66846 12.0878 13.0888 8.86963 17.3014 8.86963C21.5272 8.86963 24.9475 12.0756 24.9475 16.0035C24.9475 17.8879 24.1552 19.6745 22.7026 21.0082C21.2763 22.3542 19.3483 23.1007 17.3014 23.1007C17.3014 23.1007 17.3146 23.1007 17.3014 23.1007ZM17.3146 11.3169C14.5546 11.3169 12.3096 13.4216 12.3096 16.0157C12.3096 18.5732 14.5414 20.6534 17.3014 20.6656C20.0614 20.6656 22.3196 18.5976 22.3196 16.0525C22.3196 14.7921 21.8046 13.6052 20.8669 12.7119C19.9161 11.8064 18.6616 11.3169 17.3146 11.3169V11.0722V11.3169Z" fill="#5D3FD3"/>
</svg>
