<svg width="43" height="42" viewBox="0 0 43 42" fill="none" xmlns="http://www.w3.org/2000/svg">
<path d="M42.5964 19.8724C42.5725 22.4039 42.0816 24.615 41.088 26.73C40.9683 26.9757 40.8845 27.0184 40.6091 26.9009C40.0345 26.6552 39.4479 26.4202 38.8493 26.2173C38.538 26.1105 38.4901 26.0143 38.6218 25.7366C39.5077 23.8566 39.9267 21.8912 39.9028 19.851C39.819 13.9761 35.5571 8.62461 29.3199 6.57374C27.8235 6.08238 26.2791 5.79398 24.6869 5.70853C24.4235 5.69784 24.3277 5.64444 24.3517 5.38808C24.3996 4.78991 24.4355 4.19173 24.4355 3.58288C24.4355 3.29448 24.5672 3.27311 24.8306 3.2838C28.853 3.54015 32.4684 4.74718 35.593 7.02237C39.5676 9.92777 41.8422 13.6877 42.4887 18.2274C42.5605 18.8576 42.6204 19.4878 42.5964 19.8724Z" fill="#5D3FD3"/>
<path d="M35.8209 20.4368C35.7611 21.772 35.4498 23.0431 34.8991 24.2821C34.7674 24.5812 34.6477 24.5812 34.3604 24.4637C33.7977 24.218 33.2231 23.9937 32.6365 23.8014C32.3132 23.6946 32.3013 23.5878 32.421 23.3208C33.5942 20.6184 33.3667 18.0014 31.6189 15.5661C30.0027 13.323 27.6563 12.0732 24.6873 11.7635C24.0888 11.6994 24.0768 11.7101 24.1007 11.1653C24.1247 10.6312 24.1606 10.0972 24.1726 9.56309C24.1726 9.34946 24.2444 9.30674 24.4838 9.31742C30.0985 9.66991 34.6238 13.2695 35.6533 18.2578C35.797 18.9734 35.8449 19.7105 35.8209 20.4368Z" fill="#5D3FD3"/>
<path d="M29.0809 20.1923C29.057 20.7372 28.9492 21.3568 28.6858 21.9445C28.602 22.1368 28.5422 22.2223 28.2788 22.1154C27.6443 21.8483 26.9978 21.6026 26.3514 21.3675C26.1359 21.2927 26.1119 21.2179 26.1838 21.0149C26.7823 19.4764 25.8845 18.0982 24.0887 17.7669C23.8732 17.7242 23.7894 17.6708 23.8014 17.4571C23.8493 16.816 23.8732 16.175 23.8852 15.5339C23.8852 15.3096 24.0049 15.3202 24.1965 15.3416C26.9619 15.5767 29.057 17.6174 29.0809 20.1923Z" fill="#5D3FD3"/>
<path d="M37.6411 34.1206C36.1806 31.9095 34.6722 29.7091 33.1398 27.5407C31.9307 25.8317 29.5005 25.3617 27.5491 26.3978C26.8547 26.761 26.1604 27.1348 25.478 27.5193C25.2865 27.6262 25.1069 27.6582 24.8914 27.6048C24.0654 27.4125 23.3231 27.0921 22.6527 26.6328C19.9471 24.7955 18.2352 22.3281 17.0979 19.5295C16.6071 18.3439 16.4036 17.1048 16.643 15.8337C16.7028 15.5132 16.8226 15.2782 17.1697 15.1073C17.8162 14.7976 18.4267 14.4451 19.0493 14.0926C21.0844 12.9497 21.683 10.8027 20.4499 8.9761C19.0134 6.83979 17.5408 4.72483 16.0923 2.59919C15.6015 1.88353 14.9191 1.36013 14.0332 1.06105C13.7219 0.95423 13.3867 0.89014 13.0635 0.804688C12.7043 0.804688 12.3452 0.804688 11.986 0.804688C11.0642 0.836732 10.31 1.22127 9.57975 1.68058C9.10089 1.97966 8.634 2.27875 8.1671 2.59919C5.50941 4.42575 3.51016 6.70093 2.26512 9.47814C1.15176 11.9456 0.816556 14.5198 1.05599 17.1689C1.2595 19.3586 1.8102 21.4629 2.64821 23.5137C3.59396 25.8103 4.88689 27.9359 6.32348 30.0082C8.26288 32.7854 10.4896 35.349 13.3388 37.4532C15.9367 39.3652 18.8218 40.7859 22.114 41.5015C22.8802 41.6725 23.6703 41.7045 24.4485 41.8113C24.5682 41.8113 24.6879 41.8113 24.8076 41.8113C24.8555 41.6725 24.9752 41.7472 25.071 41.7472C25.1308 41.7472 25.1907 41.7472 25.2505 41.7472C25.3463 41.7365 25.4541 41.7152 25.5259 41.822C25.9449 41.822 26.3639 41.822 26.7829 41.822C26.8787 41.7259 26.9625 41.7045 27.0583 41.822C27.2139 41.822 27.3575 41.822 27.5132 41.822C27.5371 41.7579 27.585 41.7472 27.6449 41.7472C30.7455 41.5229 33.5708 40.5829 36.2045 39.1409C38.1918 38.0407 38.8263 35.8937 37.6411 34.1206ZM10.31 4.26552C10.7649 4.00916 11.1959 3.73144 11.6508 3.4644C12.4529 2.99441 13.2909 3.15464 13.8057 3.89167C15.0508 5.70754 16.2958 7.52341 17.5409 9.33928C17.7444 9.63836 17.9479 9.92677 18.1514 10.2259C18.2951 10.4395 18.3789 10.6531 18.3669 10.8133C18.3549 11.3795 18.1275 11.7533 17.6845 12.0097C17.1817 12.2874 16.655 12.5544 16.1641 12.8535C15.8888 13.0244 15.781 12.9497 15.6374 12.7253C14.1529 10.5356 12.6564 8.35657 11.16 6.17753C10.8368 5.70754 10.5375 5.23755 10.1903 4.78892C9.98678 4.53256 10.0466 4.40438 10.31 4.26552ZM30.0152 38.938C26.3639 39.8139 22.8443 39.4507 19.4563 38.0193C16.0923 36.5987 13.3867 34.4303 11.148 31.8133C8.32274 28.5127 5.97631 24.9771 4.6714 20.9502C4.10874 19.2197 3.79748 17.468 3.79748 15.5346C3.82142 12.1699 5.01858 9.05088 7.65233 6.41252C7.89176 6.17753 7.98753 6.14548 8.19105 6.44457C10.0706 9.22178 11.9741 11.999 13.8775 14.7655C13.9853 14.9151 14.0811 15.0539 14.0332 15.2462C13.6142 17.0941 13.9254 18.8886 14.6677 20.619C15.9486 23.6312 17.8401 26.2803 20.7013 28.3205C21.683 29.0255 22.7964 29.5488 24.0175 29.8586C24.209 29.912 24.3168 29.9975 24.4245 30.1363C26.3519 32.9563 28.2794 35.7762 30.2188 38.5855C30.3624 38.8311 30.2786 38.8739 30.0152 38.938ZM34.8757 37.0366C34.325 37.3357 33.7504 37.5814 33.1997 37.8805C32.9243 38.03 32.8525 37.8698 32.7448 37.7096C31.2722 35.5626 29.7997 33.4156 28.3272 31.2686C27.9801 30.7559 27.6449 30.2325 27.2737 29.7411C27.1061 29.5061 27.166 29.41 27.4174 29.2925C27.9322 29.0361 28.411 28.7584 28.9138 28.4914C29.68 28.0961 30.4702 28.2457 30.937 28.9186C32.4095 31.0443 33.8701 33.1913 35.3306 35.3276C35.4623 35.5305 35.5341 35.7442 35.5341 35.9792C35.5102 36.4171 35.3067 36.791 34.8757 37.0366Z" fill="#5D3FD3"/>
</svg>
