<svg width="93" height="90" viewBox="0 0 93 90" fill="none" xmlns="http://www.w3.org/2000/svg">
<ellipse opacity="0.1" cx="46.9145" cy="44.9758" rx="44.9718" ry="44.9758" fill="#5D3FD3"/>
<path d="M68.4107 41.8319C68.1752 42.1855 67.8387 42.2803 67.4349 42.2717C66.7703 42.2458 66.0973 42.2631 65.3823 42.2631C65.3823 42.4701 65.3823 42.6339 65.3823 42.8064C65.3823 48.3002 65.3823 53.794 65.3823 59.2878C65.3823 59.4862 65.3823 59.6932 65.3234 59.8829C65.2393 60.1934 64.9869 60.4004 64.6925 60.3228C64.4737 60.2624 64.2466 60.0641 64.112 59.8657C64.0195 59.7277 64.0531 59.4776 64.0531 59.2792C64.0531 53.8027 64.0531 48.3175 64.0531 42.8409C64.0531 42.6684 64.0531 42.496 64.0531 42.2976C62.8838 42.2976 61.7313 42.2976 60.5367 42.2976C60.7555 42.8927 60.9658 43.4619 61.1761 44.0397C62.236 46.9289 62.9595 49.913 63.4222 52.9661C63.4727 53.3025 63.3969 53.5698 63.1193 53.7509C62.8165 53.9407 62.5389 53.8458 62.2697 53.6302C61.1424 52.716 60.0068 51.8018 58.8795 50.8876C58.7617 50.7927 58.6271 50.7065 58.4673 50.5857C58.3748 50.7323 58.299 50.8617 58.2233 50.9911C57.4746 52.164 56.7175 53.3369 55.9688 54.5099C55.7838 54.8031 55.5482 55.0274 55.1781 54.9584C54.7827 54.8894 54.6565 54.5702 54.606 54.208C54.1686 51.2757 53.403 48.4382 52.2842 45.7043C51.8888 44.747 51.443 43.8069 50.9298 42.8841C50.9298 50.4564 50.9298 58.0287 50.9298 65.6355C55.2874 65.6355 59.645 65.6355 64.0531 65.6355C64.0531 64.7903 64.0531 63.9451 64.0531 63.1085C64.0531 62.8929 64.0447 62.6773 64.0531 62.4617C64.0784 62.0132 64.3475 61.72 64.7177 61.72C65.0962 61.72 65.3739 62.0046 65.3823 62.4617C65.3991 63.1947 65.3907 63.9278 65.3907 64.6523C65.3907 65.187 65.3991 65.7131 65.3907 66.2478C65.3739 66.7653 65.1635 66.9636 64.6672 66.9636C52.8394 66.9636 41.02 66.9636 29.1922 66.9636C28.6959 66.9636 28.4856 66.7567 28.4604 66.2478C28.4519 66.1185 28.4604 65.9891 28.4604 65.8597C28.4604 58.1839 28.4604 50.5081 28.4604 42.8323C28.4604 42.6598 28.4604 42.4873 28.4604 42.2631C27.7621 42.2631 27.0807 42.2631 26.3993 42.2631C25.6338 42.2631 25.4319 42.0561 25.4319 41.2627C25.4319 40.8918 25.4235 40.5123 25.4319 40.1415C25.4487 39.7016 25.6927 39.4343 26.0544 39.417C26.433 39.3998 26.719 39.6671 26.7526 40.1156C26.7695 40.3571 26.7526 40.5986 26.7526 40.8659C26.9041 40.8745 27.0303 40.8918 27.148 40.8918C29.2764 40.8918 31.4047 40.8918 33.533 40.8918C33.7265 40.8918 33.8863 40.9004 34.0125 40.6589C35.0136 38.7529 36.0315 36.8642 37.0494 34.9668C37.0746 34.915 37.0915 34.8633 37.1251 34.777C35.8969 34.4321 34.6855 34.0871 33.4825 33.7421C33.39 33.7162 33.2891 33.6903 33.1965 33.6558C31.8842 33.1729 30.5382 33.0521 29.1502 33.1211C28.3678 33.1556 27.5855 33.1298 26.7611 33.1298C26.7611 33.8542 26.7611 34.5355 26.7611 35.2169C26.7611 35.881 26.7695 36.5364 26.7611 37.2005C26.7526 37.7094 26.4919 38.0285 26.0965 38.0285C25.6927 38.0285 25.4319 37.718 25.4319 37.2005C25.4151 35.6912 25.4151 34.1647 25.4235 32.6468C25.4235 32.0344 25.6675 31.7843 26.2647 31.7757C27.3415 31.7671 28.4183 31.7757 29.5035 31.7757C29.3352 31.3359 29.1418 30.9391 29.0324 30.5165C28.8305 29.7317 28.9062 28.9555 29.1838 28.1965C29.5035 27.3082 29.8063 26.4199 30.1428 25.5402C30.7317 23.9964 31.8253 23.1081 33.4573 22.996C34.1471 22.9442 34.7781 23.1512 35.3922 23.4531C37.9916 24.7209 40.591 25.98 43.1904 27.2565C43.426 27.3686 43.6026 27.3686 43.8466 27.2565C44.2251 27.0926 44.6458 26.9632 45.0496 26.9546C46.2778 26.9201 47.5144 26.9201 48.7426 26.9546C49.138 26.9632 49.5502 27.0667 49.9119 27.2392C50.2063 27.3772 50.4082 27.36 50.6859 27.2306C53.2684 25.9628 55.8595 24.7122 58.4421 23.4444C59.6619 22.8494 60.8648 22.8149 62.051 23.5134C62.7828 23.9447 63.2876 24.5829 63.5988 25.3763C63.9774 26.3595 64.3475 27.3513 64.684 28.3518C65.0542 29.4643 64.9448 30.551 64.3644 31.5773C64.3391 31.6205 64.3223 31.6722 64.2887 31.7757C65.3739 31.7757 66.417 31.7843 67.4601 31.7757C67.8723 31.7757 68.2004 31.8792 68.4023 32.2759C68.4107 35.4584 68.4107 38.6408 68.4107 41.8319ZM42.9212 42.8927C42.8876 42.8841 42.8455 42.8668 42.8119 42.8582C42.3913 43.8069 41.9454 44.747 41.55 45.7043C40.448 48.3951 39.6825 51.1894 39.2534 54.0787C39.1945 54.4495 39.1441 54.8376 38.6898 54.9411C38.2524 55.036 38.0252 54.7427 37.8149 54.4236C37.0746 53.2766 36.3428 52.1209 35.6025 50.9738C35.5183 50.8445 35.4426 50.7237 35.3585 50.5771C35.2071 50.6892 35.0893 50.7668 34.9799 50.8531C33.8443 51.7673 32.717 52.6729 31.5814 53.5957C31.3037 53.8199 31.0177 53.9407 30.6981 53.7337C30.4036 53.5439 30.3531 53.2507 30.4036 52.9057C30.9084 49.6284 31.7244 46.4373 32.9021 43.3412C33.0367 42.9962 33.1545 42.6512 33.2891 42.289C32.0945 42.289 30.942 42.289 29.8063 42.289C29.8063 50.0941 29.8063 57.8562 29.8063 65.6269C34.1892 65.6269 38.5468 65.6269 42.9212 65.6269C42.9212 58.0287 42.9212 50.465 42.9212 42.8927ZM49.5334 65.6441C49.5334 57.8303 49.5334 50.0596 49.5334 42.289C47.7583 42.289 46.017 42.289 44.2756 42.289C44.2756 50.0855 44.2756 57.8562 44.2756 65.6441C46.0422 65.6441 47.7668 65.6441 49.5334 65.6441ZM49.4324 37.6835C52.5534 42.1941 54.6144 47.1101 55.666 52.5521C55.8006 52.3624 55.8847 52.2503 55.952 52.1295C56.482 51.2326 57.012 50.3442 57.5419 49.4473C57.8953 48.8522 58.2318 48.7573 58.7786 49.1541C59.6534 49.7923 60.5199 50.4477 61.3948 51.0946C61.5126 51.1808 61.6219 51.2671 61.7734 51.3706C61.7734 51.2498 61.7818 51.2067 61.7734 51.1636C60.6629 45.5059 58.5851 40.2622 55.5146 35.4239C55.3884 35.2255 55.2874 35.1565 55.0435 35.2255C53.7984 35.5964 52.5366 35.9413 51.2915 36.2949C51.1738 36.3294 51.0392 36.3812 50.9803 36.4761C50.6186 37.0625 50.1222 37.442 49.4324 37.6835ZM31.9851 51.4051C33.0872 50.5944 34.0714 49.8613 35.0641 49.1454C35.5941 48.7573 35.939 48.8522 36.267 49.4301C36.5362 49.8958 36.7886 50.3787 37.0662 50.8445C37.4027 51.4051 37.7476 51.9484 38.1514 52.5866C39.2114 47.1101 41.2724 42.1855 44.385 37.6921C43.712 37.442 43.1988 37.0711 42.8455 36.4847C42.795 36.3984 42.6689 36.3553 42.5679 36.3208C41.3061 35.9586 40.0358 35.6136 38.7739 35.2428C38.5552 35.1824 38.4543 35.2341 38.3365 35.4239C35.8632 39.3221 34.0041 43.4964 32.8096 47.9811C32.5151 49.0851 32.2712 50.1976 31.9851 51.4051ZM51.342 34.8374C51.443 34.8374 51.485 34.846 51.5187 34.8374C54.9509 33.8715 58.3916 32.9141 61.8154 31.9223C63.2539 31.5083 63.9017 30.1716 63.4054 28.714C63.0941 27.7912 62.7576 26.8856 62.4127 25.98C62.3286 25.7558 62.2192 25.5316 62.0846 25.3332C61.3948 24.3414 60.2255 24.0827 59.0562 24.6519C56.5324 25.8766 54.0087 27.1099 51.485 28.3345C51.3757 28.3863 51.2663 28.4553 51.1738 28.507C51.2411 29.0072 51.3084 29.4902 51.3841 29.9991C51.5523 29.9128 51.7122 29.8179 51.872 29.7403C53.2937 29.0762 54.6986 28.369 56.1455 27.7653C57.1802 27.3341 58.2822 27.0926 59.4179 27.1099C60.4274 27.1271 61.3612 27.3686 62.0426 28.2138C62.3622 28.6105 62.3622 29.0159 62.0678 29.2832C61.7818 29.542 61.4032 29.5075 61.0751 29.1366C60.6545 28.6709 60.1414 28.4467 59.5441 28.4725C58.972 28.4984 58.3916 28.5243 57.8448 28.6623C55.5819 29.2315 53.5292 30.2923 51.5355 31.4997C51.443 31.5515 51.3504 31.6895 51.3504 31.793C51.342 32.802 51.342 33.8025 51.342 34.8374ZM42.6436 28.507C42.61 28.4812 42.5763 28.4553 42.5427 28.438C39.9096 27.153 37.2765 25.8507 34.6266 24.5915C33.2975 23.9619 31.9767 24.5225 31.4299 25.9111C31.0598 26.8511 30.7149 27.8084 30.3952 28.7658C30.2858 29.1107 30.227 29.4988 30.269 29.8611C30.3868 30.965 31.0261 31.6377 32.0609 31.9309C34.5004 32.6209 36.9316 33.3109 39.3712 33.9922C40.3891 34.2768 41.407 34.57 42.4838 34.8719C42.4838 33.8715 42.4754 32.9314 42.4922 31.9827C42.5006 31.7153 42.3997 31.5687 42.1725 31.448C41.55 31.1116 40.9611 30.7408 40.3302 30.4217C38.6982 29.5937 37.0494 28.8089 35.2323 28.5156C34.2565 28.3604 33.3059 28.3518 32.574 29.2315C32.3301 29.5247 32.002 29.5075 31.7075 29.2832C31.4215 29.0676 31.3795 28.6881 31.6066 28.3604C32.0693 27.6791 32.7338 27.3168 33.5246 27.1702C34.5425 26.9891 35.5268 27.1357 36.511 27.4031C38.429 27.9119 40.2124 28.7744 41.937 29.749C42.0968 29.8438 42.2651 29.9301 42.4333 30.0163C42.509 29.5075 42.5763 29.0245 42.6436 28.507ZM67.0395 40.8918C67.0395 38.27 67.0395 35.7171 67.0395 33.1384C65.5253 33.1384 64.0447 33.1384 62.5641 33.1384C62.4716 33.1384 62.3706 33.1729 62.2781 33.1987C60.9069 33.5869 59.5357 33.9663 58.156 34.3544C57.6765 34.4924 57.2054 34.6304 56.7259 34.7684C56.7428 34.8374 56.7428 34.8719 56.7512 34.8978C57.7775 36.821 58.7954 38.7357 59.8385 40.6503C59.9058 40.7711 60.1161 40.8659 60.2591 40.8659C61.6135 40.8832 62.9679 40.8745 64.3307 40.8745C65.2308 40.8918 66.1226 40.8918 67.0395 40.8918ZM50.0129 32.3449C50.0129 31.4566 50.0213 30.5683 50.0129 29.68C50.0044 28.8089 49.5249 28.3173 48.6921 28.3087C47.506 28.3 46.3198 28.3 45.1253 28.3087C44.3093 28.3173 43.8214 28.8089 43.8214 29.6541C43.8129 31.4566 43.8129 33.2677 43.8214 35.0703C43.8298 35.8982 44.3261 36.3984 45.1421 36.4071C46.3198 36.4157 47.4891 36.4157 48.6669 36.4071C49.5249 36.3984 50.0129 35.9068 50.0129 35.0099C50.0129 34.1216 50.0129 33.2332 50.0129 32.3449ZM49.9035 40.8659C49.4913 40.2105 49.1212 39.6154 48.7258 39.0289C48.4397 38.6063 48.2126 38.0457 47.8088 37.8387C47.405 37.6317 46.8246 37.7784 46.3282 37.7697C46.2609 37.7697 46.1852 37.7611 46.1179 37.7784C46.0422 37.7956 45.9497 37.8301 45.9076 37.8819C45.2515 38.8478 44.5953 39.8224 43.8971 40.8659C45.9413 40.8659 47.8761 40.8659 49.9035 40.8659Z" fill="#5D3FD3"/>
<path d="M64.2883 3.479C80.4994 10.2753 91.8868 26.2956 91.8868 44.9758C91.8868 63.6597 80.495 79.6826 64.2788 86.4766" stroke="#5D3FD3" stroke-width="2"/>
<path d="M15.4257 12.8649C7.10479 21.027 1.94266 32.3985 1.94266 44.9757C1.94266 57.5556 7.10702 68.9293 15.4311 77.0918" stroke="#5D3FD3" stroke-width="2"/>
</svg>
