<svg width="92" height="90" viewBox="0 0 92 90" fill="none" xmlns="http://www.w3.org/2000/svg">
<ellipse opacity="0.1" cx="45.8484" cy="44.9488" rx="44.8231" ry="44.9488" fill="#5D3FD3"/>
<path d="M35.1751 58.7672C33.769 59.9779 32.3432 61.149 30.9966 62.3994C30.7986 62.5781 30.7986 63.0941 30.8382 63.4316C30.9966 64.94 30.1054 66.2103 28.6598 66.5081C27.2934 66.7859 25.927 65.8928 25.5705 64.5034C25.3131 63.4911 25.6101 62.5979 26.3626 61.8834C27.135 61.1688 28.0657 60.9505 29.0163 61.3276C29.6104 61.5658 29.9668 61.4467 30.4025 61.0498C31.6303 59.9581 32.8977 58.8863 34.1849 57.7946C32.0462 55.5319 30.6797 52.9318 30.1847 49.9148C30.1649 49.8156 30.145 49.7163 30.0856 49.6369C29.7292 49.1804 27.0161 49.4385 26.7389 49.9545C26.4022 50.5897 26.1052 51.2645 25.7487 51.8997C25.2933 52.7333 24.9368 53.428 25.6101 54.4799C26.422 55.7502 25.5111 57.5168 24.0853 58.013C22.6 58.529 20.9365 57.6557 20.5801 56.1671C20.2038 54.6189 21.1742 52.9913 22.7386 52.8722C23.6694 52.7928 24.0258 52.376 24.3427 51.6416C24.7586 50.7088 25.2734 49.8156 25.6893 48.8827C25.9666 48.2476 26.4022 48.0094 27.0755 48.0491C27.9865 48.0888 28.9172 48.0689 29.9668 48.0689C29.9668 47.275 29.9668 46.5605 29.9668 45.8459C29.9668 45.1512 29.9668 44.4565 29.9668 43.6229C28.6202 43.6229 27.3528 43.603 26.0854 43.6427C25.8873 43.6427 25.6497 43.9802 25.5111 44.2183C24.7982 45.3299 23.6496 45.8261 22.4614 45.5085C21.3326 45.1909 20.5009 44.1191 20.5009 42.9481C20.5009 41.7373 21.2732 40.7052 22.4416 40.3678C23.6298 40.0105 24.8378 40.467 25.4715 41.6182C25.7487 42.1144 26.0458 42.2534 26.5607 42.2335C27.6498 42.1938 28.739 42.2335 29.8876 42.2335C29.8876 41.122 29.8876 40.0899 29.8876 38.8791C29.0361 38.8791 28.1647 38.9585 27.2934 38.8394C26.8379 38.7799 26.3626 38.4822 26.0062 38.1646C25.6497 37.847 25.3923 37.3905 25.1348 36.9737C24.6001 36.1798 24.1447 35.5645 22.9169 35.6439C21.3326 35.7233 20.2434 34.0758 20.5405 32.4284C20.7979 31.0192 22.3426 30.0268 23.7684 30.3642C25.3329 30.7413 26.3626 32.349 25.7091 33.7781C25.2734 34.711 25.5903 35.2072 26.0656 35.8622C27.3924 37.6684 27.3726 37.6684 29.9866 37.3508C29.9866 36.7554 30.0262 36.1401 29.9866 35.5248C29.9074 34.6316 30.1847 34.2148 31.1748 34.1354C31.9669 34.0758 32.7591 33.6789 33.769 33.3811C32.4224 31.7337 31.2936 30.265 30.046 28.8557C29.848 28.6374 29.2737 28.7168 28.8776 28.7168C27.432 28.7565 26.2042 27.7641 26.0458 26.3548C25.9072 24.9456 26.8577 23.6753 28.2835 23.4173C29.6302 23.1592 30.9768 24.0127 31.2936 25.3823C31.3927 25.8189 31.4719 26.3747 31.2738 26.7319C30.8184 27.5656 31.2144 28.0618 31.6897 28.6374C32.6601 29.7886 33.6106 30.9795 34.7988 32.4681C35.1553 31.2971 35.5513 30.3642 35.7098 29.4115C35.8286 28.6771 36.086 28.3595 36.8385 28.3595C42.8389 28.3595 48.8591 28.3595 54.8595 28.3595C55.5922 28.3595 55.8497 28.6771 55.9685 29.4115C56.1269 30.3642 56.4834 31.2772 56.7606 32.2101C56.8596 32.2101 56.9784 32.2101 57.0775 32.2101C58.226 30.781 59.3944 29.3718 60.5232 27.903C60.642 27.7442 60.5826 27.3671 60.5034 27.1091C60.0677 25.7991 60.4044 24.5685 61.4342 23.8341C62.4243 23.1394 63.7115 23.1791 64.6621 23.9333C65.5929 24.6876 65.9097 25.9777 65.4542 27.0694C64.9591 28.2404 63.87 28.7962 62.4639 28.6771C62.1471 28.6572 61.6916 28.7962 61.4936 29.0145C60.345 30.3443 59.2756 31.7139 57.9686 33.3216C58.9786 33.6193 59.8301 33.9964 60.7213 34.1155C61.4738 34.2346 61.7708 34.4927 61.751 35.2469C61.7114 35.9217 61.751 36.6164 61.751 37.4104C62.6422 37.4104 63.4343 37.4302 64.2066 37.3905C64.4245 37.3707 64.6621 37.1722 64.8205 36.9935C65.1374 36.6164 65.375 36.1599 65.6919 35.8026C66.2266 35.1873 66.4444 34.6514 66.0285 33.8178C65.5136 32.7857 66.0285 31.5352 66.9791 30.8406C67.89 30.1856 69.1178 30.1856 70.0486 30.8207C71.0189 31.4956 71.4348 32.7063 71.0784 33.798C70.7219 34.9492 69.7317 35.7828 68.5633 35.6439C67.6722 35.5446 67.1969 35.8622 66.8603 36.5767C65.9691 38.3432 64.6621 39.296 62.6026 38.8593C62.3649 38.7997 62.0877 38.899 61.7906 38.9188C61.7906 40.0105 61.7906 41.0625 61.7906 42.2137C63.0976 42.2137 64.3254 42.2335 65.573 42.1938C65.7711 42.1938 66.0285 41.8961 66.1671 41.6579C66.8999 40.5067 67.989 40.0105 69.197 40.3479C70.405 40.6655 71.217 41.7373 71.1972 42.9679C71.1774 44.1191 70.405 45.1512 69.2961 45.4886C68.0881 45.8658 66.9197 45.3299 66.1473 44.1985C65.9493 43.9206 65.5136 43.6626 65.177 43.6427C64.068 43.5634 62.959 43.6229 61.7906 43.6229C61.7906 45.1314 61.7906 46.5406 61.7906 48.0689C62.761 48.0689 63.7115 48.1086 64.6621 48.0491C65.3552 48.0094 65.7513 48.2873 66.0285 48.9224C66.5236 49.9942 67.0979 51.0462 67.6128 52.118C67.8306 52.5745 68.0485 52.8127 68.6227 52.8325C69.9298 52.8722 70.8803 53.7456 71.1378 54.9762C71.3754 56.1075 70.7417 57.3381 69.6723 57.8542C68.6425 58.3504 67.3751 58.1122 66.583 57.2587C65.7315 56.3258 65.6721 55.1349 66.3256 53.944C66.484 53.6463 66.484 53.17 66.385 52.8325C66.2464 52.3363 65.9295 51.8798 65.6919 51.4035C64.6027 49.24 64.6027 49.2201 62.1669 49.498C61.9293 49.5179 61.5728 49.8156 61.5332 50.0339C60.9787 53.0112 59.6519 55.5716 57.5329 57.8145C58.939 59.0252 60.3054 60.2161 61.7114 61.3673C61.8698 61.5063 62.2461 61.4666 62.4837 61.407C63.8304 60.9902 65.0186 61.3276 65.7315 62.3796C66.4048 63.372 66.3454 64.682 65.5532 65.595C64.7809 66.5081 63.4937 66.7859 62.4045 66.2897C61.2361 65.7538 60.7015 64.6225 60.8995 63.2529C60.9391 62.9949 60.9391 62.6178 60.7807 62.4788C59.3746 61.2284 57.9488 60.0176 56.523 58.787C53.2554 61.0299 50.0275 63.1934 46.8392 65.4362C46.0867 65.9523 45.5718 65.9523 44.8193 65.4362C41.6705 63.1735 38.4426 61.0101 35.1751 58.7672ZM37.2148 29.7886C37.1356 30.0665 37.0564 30.3245 36.9772 30.5627C36.3039 33.0834 34.6998 34.711 32.2046 35.366C31.4719 35.5645 31.3728 35.8622 31.3728 36.5172C31.3927 40.1296 31.3728 43.7221 31.3927 47.3345C31.4125 52.0783 33.3928 55.8098 37.2742 58.5092C39.908 60.3352 42.5617 62.1216 45.1757 63.9476C45.6906 64.3049 46.0272 64.3247 46.5619 63.9675C49.176 62.1216 51.8494 60.3551 54.4832 58.529C58.4043 55.8098 60.3846 52.0584 60.3846 47.2551C60.3846 43.6824 60.3846 40.1097 60.3846 36.537C60.3846 36.2195 60.345 35.9019 60.3252 35.5843C60.246 35.6637 60.1668 35.7431 60.0876 35.8225C58.8796 35.0881 57.4735 34.5324 56.5032 33.5399C55.5328 32.5475 55.0179 31.1383 54.2456 29.7886C48.7007 29.7886 42.9775 29.7886 37.2148 29.7886ZM28.7786 24.767C28.0459 24.8464 27.5112 25.2235 27.4914 25.9976C27.4716 26.7518 27.8875 27.248 28.6598 27.3076C29.3925 27.3869 30.0262 26.7915 30.0064 26.0571C29.9866 25.283 29.5113 24.8861 28.7786 24.767ZM62.9788 24.767C62.2263 24.8662 61.751 25.2632 61.7114 26.0373C61.6718 26.7716 62.3055 27.3671 63.0382 27.3076C63.8106 27.248 64.266 26.7915 64.2462 26.0174C64.2462 25.2433 63.7313 24.8662 62.9788 24.767ZM29.4519 63.769C29.3529 63.0346 28.937 62.5781 28.1647 62.5979C27.3924 62.6178 26.9567 63.0941 26.9171 63.8484C26.8775 64.5629 27.5508 65.1981 28.2637 65.1187C29.0163 65.0194 29.4321 64.5828 29.4519 63.769ZM64.8205 63.8881C64.8007 63.1338 64.2264 62.5781 63.5333 62.5781C62.7808 62.5781 62.2065 63.1735 62.2857 63.9079C62.3451 64.7019 62.8402 65.1187 63.5927 65.0988C64.3452 65.079 64.7611 64.5828 64.8205 63.8881ZM24.4813 42.9084C24.4021 42.1343 23.9664 41.6381 23.2139 41.6381C22.4614 41.6381 21.9861 42.0946 21.9267 42.8687C21.8673 43.5832 22.501 44.2183 23.2337 44.1787C24.006 44.139 24.3823 43.6626 24.4813 42.9084ZM68.5831 41.6182C67.8504 41.6976 67.3157 42.0549 67.2761 42.8488C67.2365 43.6229 67.6722 44.0993 68.4445 44.1787C69.1772 44.258 69.8307 43.6824 69.8109 42.9481C69.7911 42.1541 69.3357 41.7572 68.5831 41.6182ZM24.4813 33.0239C24.3823 32.2498 23.9664 31.7734 23.2139 31.7734C22.4416 31.7734 21.9861 32.2299 21.9267 33.004C21.8673 33.7186 22.501 34.3339 23.2337 34.2942C24.006 34.2545 24.3823 33.7781 24.4813 33.0239ZM68.4841 34.2942C69.2763 34.2545 69.7515 33.8575 69.7911 33.0834C69.8307 32.3093 69.3951 31.833 68.6227 31.7536C67.89 31.6742 67.2365 32.2696 67.2563 33.004C67.2959 33.798 67.7316 34.2148 68.4841 34.2942ZM23.1743 56.7427C23.9466 56.6831 24.4021 56.2663 24.4615 55.5121C24.5209 54.7975 23.8872 54.1624 23.1545 54.2219C22.3822 54.2815 21.9267 54.7181 21.9267 55.4922C21.9267 56.2663 22.4218 56.6633 23.1743 56.7427ZM68.5039 56.7427C69.2763 56.703 69.7317 56.306 69.8109 55.5319C69.8704 54.8174 69.2565 54.1822 68.5237 54.2021C67.7514 54.2418 67.2761 54.6784 67.2761 55.4525C67.2761 56.2266 67.7316 56.6434 68.5039 56.7427Z" fill="#5D3FD3"/>
<path d="M45.9293 32.329C47.8106 32.329 49.6919 32.3489 51.5732 32.3092C52.2465 32.2893 52.6822 32.4878 52.9793 33.1229C53.8308 34.9093 55.1774 36.2391 56.9399 37.1323C57.5538 37.4499 57.8112 37.8072 57.8112 38.5019C57.7716 41.5387 57.831 44.5953 57.7914 47.6321C57.732 51.1651 56.2468 54.0233 53.3951 56.0875C51.1772 57.6952 48.88 59.1838 46.6422 60.7519C46.0877 61.129 45.6521 61.1091 45.1174 60.732C42.8994 59.1838 40.622 57.6952 38.4437 56.1272C35.5524 54.0431 34.0275 51.185 33.9879 47.5924C33.9483 44.5556 33.9879 41.499 33.9681 38.4622C33.9681 37.827 34.1662 37.43 34.7603 37.1522C36.5624 36.259 37.9288 34.9093 38.8001 33.0833C39.0774 32.4878 39.4734 32.2695 40.1071 32.2893C42.0281 32.3489 43.9886 32.329 45.9293 32.329ZM45.8897 33.7184C44.1668 33.7184 42.4637 33.6787 40.7408 33.7382C40.4042 33.7581 39.9289 34.0161 39.7507 34.294C38.7803 35.9017 37.5129 37.1522 35.9485 38.1446C35.6316 38.3431 35.3544 38.8393 35.3544 39.1965C35.3148 41.9952 35.295 44.8136 35.3346 47.6122C35.3742 50.6887 36.6812 53.1698 39.1566 54.9561C41.1567 56.4051 43.2163 57.7746 45.2758 59.1441C45.5332 59.3228 46.1075 59.3426 46.365 59.164C48.4641 57.7945 50.5435 56.4051 52.5634 54.9164C55.019 53.1301 56.2864 50.6887 56.3458 47.6321C56.3854 44.7938 56.3854 41.9555 56.326 39.1172C56.326 38.7797 56.0488 38.3034 55.7715 38.1247C54.2071 37.1323 52.9396 35.8819 51.9495 34.3138C51.7514 33.9963 51.2564 33.7184 50.8801 33.7184C49.2562 33.6985 47.573 33.7184 45.8897 33.7184Z" fill="#5D3FD3"/>
<path d="M63.1647 3.47681C79.3222 10.269 90.6719 26.2797 90.6719 44.9488C90.6719 63.6214 79.3178 79.6348 63.1552 86.4247" stroke="#5D3FD3" stroke-width="2"/>
<path d="M14.4638 12.8572C6.17033 21.0145 1.02527 32.3791 1.02527 44.9488C1.02527 57.5212 6.17255 68.888 14.4691 77.0456" stroke="#5D3FD3" stroke-width="2"/>
</svg>
