<svg width="92" height="90" viewBox="0 0 92 90" fill="none" xmlns="http://www.w3.org/2000/svg">
<ellipse opacity="0.1" cx="45.9076" cy="44.8662" rx="44.883" ry="44.8662" fill="#5D3FD3"/>
<path d="M16.8685 30.936C17.0046 30.5734 17.1104 30.1805 17.2767 29.8329C18.0022 28.337 19.6197 27.4606 21.2522 27.657C21.7359 27.7175 22.0836 28.065 22.0836 28.5032C22.0836 28.9716 21.7208 29.3041 21.2069 29.3494C20.8441 29.3796 20.4813 29.3645 20.1487 29.4552C19.1813 29.7121 18.5464 30.6338 18.5918 31.6311C18.6371 32.6284 19.3476 33.4595 20.3301 33.671C20.5569 33.7163 20.7836 33.7314 21.0103 33.7314C23.958 33.7314 26.9056 33.7314 29.8533 33.7314C30.0649 33.7314 30.337 33.6861 30.473 33.5501C31.8486 32.2053 33.209 30.8453 34.7055 29.3494C34.3579 29.3494 34.1765 29.3494 33.98 29.3494C31.1986 29.3494 28.4324 29.3494 25.651 29.3494C25.4847 29.3494 25.3033 29.3645 25.137 29.3343C24.6836 29.2587 24.4266 28.9716 24.4115 28.5183C24.3964 28.065 24.6533 27.7779 25.0917 27.6721C25.2731 27.6268 25.4696 27.6419 25.651 27.6419C29.0068 27.6419 32.3777 27.6268 35.7334 27.657C36.2172 27.657 36.5346 27.521 36.8671 27.1735C37.7136 26.282 38.5904 25.4207 39.4671 24.5594C41.1148 22.9426 43.352 23.3808 44.2287 25.5113C44.7729 26.8411 45.5589 28.0046 46.5566 29.0321C47.2217 29.7121 48.0228 30.0747 48.8996 30.1956C48.96 29.2285 48.9298 28.2615 49.0961 27.3246C49.4437 25.3905 50.6379 24.1816 52.3612 23.8492C53.8274 23.5621 55.0669 24.1514 55.7774 25.466C56.4123 26.6144 56.5937 27.8988 56.6692 29.1832C56.7751 31.2231 56.7751 33.263 56.9111 35.2878C57.0774 37.7962 57.4251 40.2894 58.3774 42.6315C58.6797 43.3719 59.0727 44.0972 59.5413 44.7621C60.282 45.8047 61.3099 46.3638 62.625 46.3789C64.4994 46.394 66.3587 46.5905 68.1424 47.2251C71.9214 48.585 74.2039 51.184 74.8388 55.1883C74.8539 55.2941 74.8993 55.3999 74.9446 55.5056C74.9446 57.3642 74.9446 59.2077 74.9446 61.0663C74.8388 61.444 74.7481 61.8369 74.6121 62.1996C73.8563 64.2546 72.39 65.5239 70.2586 66.0074C70.1075 66.0376 69.9563 66.0527 69.8051 66.0527C69.3366 66.0527 69.0493 65.811 68.9586 65.3728C68.868 64.9346 69.0796 64.6021 69.5028 64.4359C69.7145 64.3604 69.9412 64.3301 70.1679 64.2697C71.8307 63.8164 73.0702 62.4111 73.1912 60.7036C73.2667 59.6006 73.2063 58.4824 73.2063 57.3038C72.9644 57.3038 72.7377 57.3038 72.5261 57.3038C66.8424 57.3038 61.1587 57.2887 55.46 57.3189C54.1146 57.3189 53.0112 56.8656 52.074 55.9136C48.9298 52.7404 45.8008 49.5823 42.6113 46.4696C41.2055 45.0945 40.3287 43.5079 40.1473 41.5284C39.845 38.2193 38.3939 35.3936 36.3834 32.8248C35.9904 32.3262 35.552 31.8426 35.1137 31.3289C34.9927 31.4347 34.9021 31.4951 34.8265 31.5706C32.9672 33.4443 31.0928 35.318 29.2335 37.1917C27.4952 38.9446 27.5103 41.4076 29.2486 43.1604C35.2648 49.1895 41.2962 55.2185 47.3275 61.2325C49.5042 63.4084 52.1798 64.451 55.2483 64.451C58.5739 64.4661 61.8994 64.451 65.225 64.451C65.4366 64.451 65.6482 64.4359 65.8447 64.4661C66.2377 64.5266 66.4947 64.7683 66.5401 65.1763C66.5854 65.5994 66.4191 65.9319 65.9959 66.0678C65.7843 66.1434 65.5575 66.1434 65.3308 66.1434C61.975 66.1434 58.6041 66.1585 55.2483 66.1434C51.6356 66.1283 48.5368 64.8439 45.9973 62.2751C45.6647 61.9427 45.3322 61.8067 44.8636 61.8067C40.7973 61.8218 36.7462 61.8218 32.68 61.8067C30.6242 61.8067 29.0975 60.6583 28.6591 58.8299C28.0847 56.4425 29.8684 54.1004 32.3323 54.055C34.0858 54.0248 35.8392 54.055 37.759 54.055C37.1544 53.4506 36.5951 52.9822 36.1416 52.4231C35.5974 51.7431 34.9474 51.5618 34.0858 51.5618C29.9289 51.6071 25.7719 51.6071 21.615 51.5769C18.7127 51.5467 16.8685 48.585 18.1232 46.0314C18.7883 44.6714 19.9069 43.9008 21.4487 43.8403C22.4464 43.795 23.444 43.8252 24.4568 43.8252C25.4394 43.8252 26.4219 43.8252 27.48 43.8252C25.5603 40.7729 25.908 38.0077 28.5382 35.4691C28.251 35.454 28.0545 35.4389 27.8731 35.4389C25.8173 35.4389 23.7615 35.4389 21.6906 35.4389C18.8336 35.4389 17.8511 34.7741 16.8685 32.1751C16.8685 31.7671 16.8685 31.344 16.8685 30.936ZM55.0669 31.7369C53.7065 31.8275 52.4821 31.9182 51.2577 31.9937C49.0054 32.1297 46.874 31.9031 45.1961 30.1351C45.1054 30.0445 44.8182 30.0596 44.6671 30.1351C42.6264 31.0871 40.7066 30.8453 38.8625 29.6365C38.4543 29.3645 38.0764 29.0623 37.7892 28.8508C37.2753 29.3041 36.8067 29.7272 36.323 30.1654C36.5648 30.4374 36.7764 30.664 36.9881 30.9058C39.4067 33.7163 41.145 36.8593 41.7496 40.5765C41.9008 41.468 42.0822 42.3444 42.2636 43.2359C42.3392 43.5986 42.5508 43.7497 42.9589 43.6892C43.8961 43.5684 44.8484 43.5381 45.7705 43.4021C49.1263 42.9488 52.3158 41.9515 55.2635 40.2289C55.6414 40.0023 55.7925 39.7907 55.6716 39.3374C55.5355 38.7934 55.4448 38.2193 55.3995 37.6602C55.3693 37.222 55.2181 37.0709 54.7797 37.1011C53.9635 37.1313 53.1623 37.1162 52.346 37.1011C51.817 37.086 51.5147 36.7535 51.5147 36.2851C51.4995 35.7865 51.817 35.4691 52.3612 35.4238C52.603 35.4087 52.8449 35.4238 53.1018 35.4238C53.767 35.4238 54.4472 35.4238 55.0518 35.4238C55.0669 34.1394 55.0669 32.9759 55.0669 31.7369ZM73.1307 55.6114C73.1005 55.3999 73.1005 55.2034 73.0551 55.0221C72.5109 52.3626 71.0296 50.4436 68.5807 49.2801C66.9936 48.5246 65.2854 48.2526 63.5471 48.1317C62.8215 48.0864 62.4436 48.2375 62.0808 48.9326C60.7808 51.5467 58.6948 53.4808 56.3972 55.2185C56.246 55.3394 56.0948 55.4452 55.8832 55.6265C61.718 55.6114 67.4017 55.6114 73.1307 55.6114ZM56.0797 41.7098C52.3914 43.8857 48.2798 44.9283 43.8659 45.3212C45.2717 46.7264 46.5868 48.0259 47.8717 49.3406C48.1438 49.6277 48.4159 49.673 48.7786 49.6125C51.2577 49.1743 53.6611 48.4793 55.9134 47.3309C56.7146 46.9229 57.4855 46.4545 58.1355 46.0918C57.4402 44.5959 56.7751 43.1906 56.0797 41.7098ZM33.4056 49.8543C33.3904 49.7788 33.4056 49.7334 33.3753 49.7183C32.0451 48.3735 30.7149 47.0438 29.3696 45.714C29.2637 45.6083 29.0672 45.5327 28.9161 45.5327C26.4219 45.5176 23.9278 45.5025 21.4336 45.5478C20.315 45.5629 19.4685 46.4847 19.4232 47.6029C19.3778 48.9326 20.3301 49.8845 21.7359 49.8845C25.4545 49.8845 29.173 49.8845 32.8916 49.8845C33.0881 49.8694 33.2544 49.8543 33.4056 49.8543ZM43.7903 60.0841C42.3241 58.6184 40.9485 57.2433 39.5578 55.8683C39.4671 55.7776 39.2857 55.7474 39.1497 55.7323C36.8671 55.7323 34.5846 55.7021 32.287 55.7323C31.1381 55.7474 30.2463 56.7296 30.2312 57.878C30.2161 59.1926 31.1835 60.0841 32.6346 60.0841C36.1718 60.0992 39.6939 60.0841 43.231 60.0841C43.3671 60.1143 43.5031 60.0992 43.7903 60.0841ZM53.7367 54.9919C56.5483 53.1333 59.1785 51.0178 60.7808 47.8295C60.5087 47.6935 60.282 47.6331 60.1157 47.4971C59.7076 47.1495 59.3901 47.3158 58.9669 47.5424C57.5611 48.313 56.1553 49.1139 54.689 49.7032C53.1321 50.3227 51.4844 50.7307 49.9577 51.1991C51.1368 52.408 52.4065 53.6773 53.7367 54.9919ZM50.774 30.3316C52.2251 30.2258 53.6007 30.12 54.9762 30.0294C54.946 28.7752 54.8553 27.6117 54.3867 26.5237C53.9786 25.5718 53.2832 25.2394 52.3309 25.6322C51.8926 25.8136 51.4391 26.1762 51.1821 26.5691C50.4565 27.7175 50.5321 29.0019 50.774 30.3316ZM38.9381 27.4606C40.2683 28.8205 42.3543 29.5761 43.8206 28.5486C43.3973 27.6721 42.9892 26.8108 42.5659 25.9496C42.2182 25.2394 41.402 25.058 40.8276 25.602C40.1776 26.2064 39.5729 26.8411 38.9381 27.4606Z" fill="#5D3FD3"/>
<path d="M36.9438 42.133C36.7624 42.3445 36.6264 42.6769 36.3996 42.7676C36.1426 42.8583 35.7042 42.8583 35.5228 42.6921C34.4948 41.7401 33.497 40.7277 32.5144 39.7153C32.1818 39.3678 32.2271 38.9447 32.5748 38.5971C32.9226 38.2647 33.3458 38.2194 33.6936 38.5518C34.7064 39.5189 35.674 40.501 36.6566 41.4983C36.7927 41.6343 36.8229 41.861 36.9438 42.133Z" fill="#5D3FD3"/>
<path d="M63.2464 3.47046C79.4255 10.2502 90.7903 26.2315 90.7903 44.8662C90.7903 63.5046 79.421 79.4885 63.2369 86.2659" stroke="#5D3FD3" stroke-width="2"/>
<path d="M14.4811 12.8335C6.17659 20.9758 1.02466 32.3195 1.02466 44.8661C1.02466 57.4154 6.17881 68.7613 14.4865 76.904" stroke="#5D3FD3" stroke-width="2"/>
</svg>
